<svg width="25" height="25" viewBox="0 0 25 25" fill="none" xmlns="http://www.w3.org/2000/svg">
<path d="M24.4287 12.6836C24.4287 6.0562 19.0561 0.683624 12.4287 0.683624C5.80129 0.683624 0.428711 6.0562 0.428711 12.6836C0.428711 18.6732 4.81693 23.6376 10.5537 24.5378V16.1524H7.50684V12.6836H10.5537V10.0399C10.5537 7.03237 12.3452 5.37113 15.0863 5.37113C16.3992 5.37113 17.7725 5.6055 17.7725 5.6055V8.55863H16.2593C14.7686 8.55863 14.3037 9.48364 14.3037 10.4326V12.6836H17.6318L17.0998 16.1524H14.3037V24.5378C20.0405 23.6376 24.4287 18.6732 24.4287 12.6836Z" fill="#1877F2"/>
<path d="M17.0998 16.1524L17.6318 12.6836H14.3037V10.4326C14.3037 9.48363 14.7686 8.55862 16.2593 8.55862H17.7725V5.60549C17.7725 5.60549 16.3992 5.37112 15.0863 5.37112C12.3452 5.37112 10.5537 7.03236 10.5537 10.0399V12.6836H7.50684V16.1524H10.5537V24.5378C11.174 24.635 11.8009 24.6838 12.4287 24.6836C13.0666 24.6836 13.6928 24.6337 14.3037 24.5378V16.1524H17.0998Z" fill="white"/>
</svg>
